STARTFONT 2.1
FONT --Century24Rpc-Regular-R-Normal--26-260-72-72-P-155-FONTSPECIFIC-0
SIZE 26 72 72
FONTBOUNDINGBOX 29 26 0 -5
METRICSSET 2
STARTPROPERTIES 19
FONT_ASCENT 21
FONT_DESCENT 5
PIXEL_SIZE 26
RESOLUTION_X 72
RESOLUTION_Y 72
POINT_SIZE 260
FACE_NAME "Classic 24-pt C"
FOUNDRY ""
FAMILY_NAME "Century24Rpc"
WEIGHT_NAME "Regular"
RELATIVE_WEIGHT 50
SLANT "R"
SPACING "P"
SETWIDTH_NAME "Normal"
RELATIVE_SETWIDTH 50
ADD_STYLE_NAME ""
AVERAGE_WIDTH 155
CHARSET_REGISTRY "FONTSPECIFIC"
CHARSET_ENCODING "0"
ENDPROPERTIES
CHARS 194
STARTCHAR char08
ENCODING 8
SWIDTH 538 0
DWIDTH 14 0
BBX 12 17 1 0
VVECTOR 7 21
SWIDTH1 0 -1000
DWIDTH1 0 -26
BITMAP 
8000
8000
8000
8000
8000
8800
9800
B800
FFF0
B800
9800
8800
8000
8000
8000
8000
8000
ENDCHAR
STARTCHAR char09
ENCODING 9
SWIDTH 538 0
DWIDTH 14 0
BBX 12 17 1 0
VVECTOR 7 21
SWIDTH1 0 -1000
DWIDTH1 0 -26
BITMAP 
0010
0010
0010
0010
0010
0110
0190
01D0
FFF0
01D0
0190
0110
0010
0010
0010
0010
0010
ENDCHAR
STARTCHAR char0C
ENCODING 12
SWIDTH 769 0
DWIDTH 20 0
BBX 15 17 3 0
VVECTOR 11 21
SWIDTH1 0 -1000
DWIDTH1 0 -26
BITMAP 
FFFE
8002
8002
8002
8002
8002
8002
8002
8002
8002
8002
8002
8102
8382
E7CE
0FE0
1FF0
ENDCHAR
STARTCHAR char0D
ENCODING 13
SWIDTH 769 0
DWIDTH 20 0
BBX 15 16 3 1
VVECTOR 11 21
SWIDTH1 0 -1000
DWIDTH1 0 -26
BITMAP 
0FF8
0004
0002
0002
0002
0002
0002
0002
0002
1002
3002
7004
FFF8
7000
3000
1000
ENDCHAR
STARTCHAR char1C
ENCODING 28
SWIDTH 538 0
DWIDTH 14 0
BBX 12 7 1 5
VVECTOR 7 21
SWIDTH1 0 -1000
DWIDTH1 0 -26
BITMAP 
1000
3000
7000
FFF0
7000
3000
1000
ENDCHAR
STARTCHAR char1D
ENCODING 29
SWIDTH 538 0
DWIDTH 14 0
BBX 12 7 1 5
VVECTOR 7 21
SWIDTH1 0 -1000
DWIDTH1 0 -26
BITMAP 
0080
00C0
00E0
FFF0
00E0
00C0
0080
ENDCHAR
STARTCHAR char1E
ENCODING 30
SWIDTH 538 0
DWIDTH 14 0
BBX 7 10 3 3
VVECTOR 7 21
SWIDTH1 0 -1000
DWIDTH1 0 -26
BITMAP 
10
38
7C
FE
10
10
10
10
10
10
ENDCHAR
STARTCHAR char1F
ENCODING 31
SWIDTH 538 0
DWIDTH 14 0
BBX 7 10 3 3
VVECTOR 7 21
SWIDTH1 0 -1000
DWIDTH1 0 -26
BITMAP 
10
10
10
10
10
10
FE
7C
38
10
ENDCHAR
STARTCHAR char20
ENCODING 32
SWIDTH 423 0
DWIDTH 11 0
BBX 0 0 5 -5
VVECTOR 5 -5
SWIDTH1 0 0
DWIDTH1 0 0
BITMAP 
ENDCHAR
STARTCHAR char21
ENCODING 33
SWIDTH 346 0
DWIDTH 9 0
BBX 3 18 3 0
VVECTOR 5 21
SWIDTH1 0 -1000
DWIDTH1 0 -26
BITMAP 
E0
E0
E0
E0
E0
E0
E0
E0
E0
E0
E0
E0
E0
40
00
00
E0
E0
ENDCHAR
STARTCHAR char22
ENCODING 34
SWIDTH 385 0
DWIDTH 10 0
BBX 8 5 1 13
VVECTOR 5 21
SWIDTH1 0 -1000
DWIDTH1 0 -26
BITMAP 
E7
E7
E7
42
42
ENDCHAR
STARTCHAR char23
ENCODING 35
SWIDTH 769 0
DWIDTH 20 0
BBX 18 16 1 1
VVECTOR 10 21
SWIDTH1 0 -1000
DWIDTH1 0 -26
BITMAP 
00C600
00C600
018C00
018C00
3FFFC0
031800
031800
063000
063000
0C6000
0C6000
FFFE00
18C000
18C000
318000
318000
ENDCHAR
STARTCHAR char24
ENCODING 36
SWIDTH 538 0
DWIDTH 14 0
BBX 12 20 1 -1
VVECTOR 7 21
SWIDTH1 0 -1000
DWIDTH1 0 -26
BITMAP 
0200
0200
1F80
6260
8230
8270
C260
F200
7E00
3F00
0FC0
03E0
02F0
6230
E210
C210
6260
1F80
0200
0200
ENDCHAR
STARTCHAR char25
ENCODING 37
SWIDTH 769 0
DWIDTH 20 0
BBX 18 18 1 0
VVECTOR 10 21
SWIDTH1 0 -1000
DWIDTH1 0 -26
BITMAP 
1C0000
630080
C18100
C18200
C18400
630800
1C1000
002000
004000
008000
010000
020E00
043180
0860C0
1060C0
2060C0
403180
000E00
ENDCHAR
STARTCHAR char26
ENCODING 38
SWIDTH 769 0
DWIDTH 20 0
BBX 19 18 1 0
VVECTOR 11 21
SWIDTH1 0 -1000
DWIDTH1 0 -26
BITMAP 
070000
18C000
306000
307000
306000
38C000
1D0000
1E0000
0F0000
378FC0
63C300
E1E200
E0F200
E07C00
E03C00
701E00
386720
0783C0
ENDCHAR
STARTCHAR char27
ENCODING 39
SWIDTH 192 0
DWIDTH 5 0
BBX 3 5 1 13
VVECTOR 3 21
SWIDTH1 0 -1000
DWIDTH1 0 -26
BITMAP 
E0
E0
E0
40
40
ENDCHAR
STARTCHAR char28
ENCODING 40
SWIDTH 346 0
DWIDTH 9 0
BBX 7 24 1 -4
VVECTOR 5 21
SWIDTH1 0 -1000
DWIDTH1 0 -26
BITMAP 
06
18
30
60
60
E0
E0
E0
E0
E0
E0
E0
E0
E0
E0
E0
E0
E0
E0
60
60
30
18
06
ENDCHAR
STARTCHAR char29
ENCODING 41
SWIDTH 346 0
DWIDTH 9 0
BBX 7 24 1 -4
VVECTOR 5 21
SWIDTH1 0 -1000
DWIDTH1 0 -26
BITMAP 
C0
30
18
0C
0C
0E
0E
0E
0E
0E
0E
0E
0E
0E
0E
0E
0E
0E
0E
0C
0C
18
30
C0
ENDCHAR
STARTCHAR char2A
ENCODING 42
SWIDTH 538 0
DWIDTH 14 0
BBX 11 7 2 8
VVECTOR 8 21
SWIDTH1 0 -1000
DWIDTH1 0 -26
BITMAP 
3180
1B00
0E00
FFE0
0E00
1B00
3180
ENDCHAR
STARTCHAR char2B
ENCODING 43
SWIDTH 769 0
DWIDTH 20 0
BBX 16 13 2 3
VVECTOR 10 21
SWIDTH1 0 -1000
DWIDTH1 0 -26
BITMAP 
0180
0180
0180
0180
0180
0180
FFFF
0180
0180
0180
0180
0180
0180
ENDCHAR
STARTCHAR char2C
ENCODING 44
SWIDTH 231 0
DWIDTH 6 0
BBX 3 5 2 -3
VVECTOR 4 21
SWIDTH1 0 -1000
DWIDTH1 0 -26
BITMAP 
E0
E0
60
40
80
ENDCHAR
STARTCHAR char2D
ENCODING 45
SWIDTH 808 0
DWIDTH 21 0
BBX 17 1 2 9
VVECTOR 11 21
SWIDTH1 0 -1000
DWIDTH1 0 -26
BITMAP 
FFFF80
ENDCHAR
STARTCHAR char2E
ENCODING 46
SWIDTH 231 0
DWIDTH 6 0
BBX 3 2 2 0
VVECTOR 4 21
SWIDTH1 0 -1000
DWIDTH1 0 -26
BITMAP 
E0
E0
ENDCHAR
STARTCHAR char2F
ENCODING 47
SWIDTH 346 0
DWIDTH 9 0
BBX 7 18 1 0
VVECTOR 5 21
SWIDTH1 0 -1000
DWIDTH1 0 -26
BITMAP 
02
02
02
04
04
08
08
08
10
10
10
20
20
40
40
40
80
80
ENDCHAR
STARTCHAR char30
ENCODING 48
SWIDTH 538 0
DWIDTH 14 0
BBX 11 18 1 0
VVECTOR 7 21
SWIDTH1 0 -1000
DWIDTH1 0 -26
BITMAP 
0E00
3180
60C0
60C0
E0E0
E0E0
E0E0
E0E0
E0E0
E0E0
E0E0
E0E0
E0E0
E0E0
60C0
60C0
3180
0E00
ENDCHAR
STARTCHAR char31
ENCODING 49
SWIDTH 538 0
DWIDTH 14 0
BBX 11 18 2 0
VVECTOR 8 21
SWIDTH1 0 -1000
DWIDTH1 0 -26
BITMAP 
0200
0600
1E00
FE00
0E00
0E00
0E00
0E00
0E00
0E00
0E00
0E00
0E00
0E00
0E00
0E00
1F00
FFE0
ENDCHAR
STARTCHAR char32
ENCODING 50
SWIDTH 500 0
DWIDTH 13 0
BBX 11 18 1 0
VVECTOR 7 21
SWIDTH1 0 -1000
DWIDTH1 0 -26
BITMAP 
0E00
3180
40C0
F0E0
70E0
00E0
00E0
01C0
0180
0300
0600
0800
1020
2020
4060
FFE0
FFE0
FFE0
ENDCHAR
STARTCHAR char33
ENCODING 51
SWIDTH 538 0
DWIDTH 14 0
BBX 12 18 1 0
VVECTOR 7 21
SWIDTH1 0 -1000
DWIDTH1 0 -26
BITMAP 
0F00
30C0
4060
F070
7070
0070
0060
00C0
0700
00C0
0060
0070
0070
7070
F070
4060
30C0
0F00
ENDCHAR
STARTCHAR char34
ENCODING 52
SWIDTH 538 0
DWIDTH 14 0
BBX 12 18 1 0
VVECTOR 7 21
SWIDTH1 0 -1000
DWIDTH1 0 -26
BITMAP 
0080
0180
0380
0780
0780
0B80
1380
1380
2380
4380
4380
8380
FFF0
0380
0380
0380
0380
1FF0
ENDCHAR
STARTCHAR char35
ENCODING 53
SWIDTH 538 0
DWIDTH 14 0
BBX 12 19 1 0
VVECTOR 7 21
SWIDTH1 0 -1000
DWIDTH1 0 -26
BITMAP 
0020
7FC0
7F80
4E00
4000
4000
4000
4700
58C0
6060
4070
0070
0070
0070
7070
F070
4060
30C0
0F00
ENDCHAR
STARTCHAR char36
ENCODING 54
SWIDTH 538 0
DWIDTH 14 0
BBX 11 18 2 0
VVECTOR 8 21
SWIDTH1 0 -1000
DWIDTH1 0 -26
BITMAP 
0F00
30C0
61E0
E1C0
E000
E000
E600
E980
F0C0
E0E0
E0E0
E0E0
E0E0
E0E0
E0E0
60C0
3180
0E00
ENDCHAR
STARTCHAR char37
ENCODING 55
SWIDTH 538 0
DWIDTH 14 0
BBX 12 18 1 0
VVECTOR 7 21
SWIDTH1 0 -1000
DWIDTH1 0 -26
BITMAP 
FFF0
FFF0
FFE0
C040
80C0
8180
8180
0380
0300
0300
0700
0700
0600
0E00
0E00
0E00
0E00
0700
ENDCHAR
STARTCHAR char38
ENCODING 56
SWIDTH 538 0
DWIDTH 14 0
BBX 12 18 1 0
VVECTOR 7 21
SWIDTH1 0 -1000
DWIDTH1 0 -26
BITMAP 
0E00
3180
6040
C020
C020
E020
F040
7D80
3F00
0FC0
33E0
40F0
8070
8030
8030
4060
30C0
0F00
ENDCHAR
STARTCHAR char39
ENCODING 57
SWIDTH 538 0
DWIDTH 14 0
BBX 11 18 1 0
VVECTOR 7 21
SWIDTH1 0 -1000
DWIDTH1 0 -26
BITMAP 
0E00
3180
60C0
E0E0
E0E0
E0E0
E0E0
E0E0
E0E0
61E0
32E0
0CE0
00E0
00E0
70E0
F0C0
6180
1E00
ENDCHAR
STARTCHAR char3A
ENCODING 58
SWIDTH 231 0
DWIDTH 6 0
BBX 3 11 2 0
VVECTOR 4 21
SWIDTH1 0 -1000
DWIDTH1 0 -26
BITMAP 
E0
E0
00
00
00
00
00
00
00
E0
E0
ENDCHAR
STARTCHAR char3B
ENCODING 59
SWIDTH 231 0
DWIDTH 6 0
BBX 3 14 2 -3
VVECTOR 4 21
SWIDTH1 0 -1000
DWIDTH1 0 -26
BITMAP 
E0
E0
00
00
00
00
00
00
00
E0
E0
60
40
80
ENDCHAR
STARTCHAR char3C
ENCODING 60
SWIDTH 538 0
DWIDTH 14 0
BBX 8 13 3 3
VVECTOR 7 21
SWIDTH1 0 -1000
DWIDTH1 0 -26
BITMAP 
03
06
0C
18
30
60
C0
60
30
18
0C
06
03
ENDCHAR
STARTCHAR char3D
ENCODING 61
SWIDTH 808 0
DWIDTH 21 0
BBX 17 4 2 7
VVECTOR 11 21
SWIDTH1 0 -1000
DWIDTH1 0 -26
BITMAP 
FFFF80
000000
000000
FFFF80
ENDCHAR
STARTCHAR char3E
ENCODING 62
SWIDTH 538 0
DWIDTH 14 0
BBX 8 13 3 3
VVECTOR 7 21
SWIDTH1 0 -1000
DWIDTH1 0 -26
BITMAP 
C0
60
30
18
0C
06
03
06
0C
18
30
60
C0
ENDCHAR
STARTCHAR char3F
ENCODING 63
SWIDTH 538 0
DWIDTH 14 0
BBX 12 18 1 0
VVECTOR 7 21
SWIDTH1 0 -1000
DWIDTH1 0 -26
BITMAP 
0F00
30C0
4060
F070
7070
0070
0070
0060
00C0
0180
0100
0200
0200
0200
0000
0000
0700
0700
ENDCHAR
STARTCHAR char40
ENCODING 64
SWIDTH 769 0
DWIDTH 20 0
BBX 16 15 2 1
VVECTOR 10 21
SWIDTH1 0 -1000
DWIDTH1 0 -26
BITMAP 
0FF0
300C
4002
4002
81F1
8631
8C31
8C31
8C31
8632
81DC
4000
4000
3000
0FC0
ENDCHAR
STARTCHAR char41
ENCODING 65
SWIDTH 731 0
DWIDTH 19 0
BBX 19 18 0 0
VVECTOR 10 21
SWIDTH1 0 -1000
DWIDTH1 0 -26
BITMAP 
00C000
00C000
01E000
016000
017000
027000
023000
023800
043800
041800
041C00
0FFC00
080C00
080E00
100E00
100600
380F00
FE3FE0
ENDCHAR
STARTCHAR char42
ENCODING 66
SWIDTH 731 0
DWIDTH 19 0
BBX 17 18 1 0
VVECTOR 10 21
SWIDTH1 0 -1000
DWIDTH1 0 -26
BITMAP 
FFF000
1C0C00
1C0600
1C0700
1C0700
1C0700
1C0600
1C0C00
1FF800
1C0600
1C0300
1C0380
1C0380
1C0380
1C0380
1C0300
1C0600
FFF800
ENDCHAR
STARTCHAR char43
ENCODING 67
SWIDTH 654 0
DWIDTH 17 0
BBX 14 18 2 0
VVECTOR 9 21
SWIDTH1 0 -1000
DWIDTH1 0 -26
BITMAP 
0388
0C78
3818
7008
7008
E008
E000
E000
E000
E000
E000
E000
E000
7004
7004
3808
0C30
03C0
ENDCHAR
STARTCHAR char44
ENCODING 68
SWIDTH 769 0
DWIDTH 20 0
BBX 18 18 1 0
VVECTOR 10 21
SWIDTH1 0 -1000
DWIDTH1 0 -26
BITMAP 
FFE000
1C1C00
1C0700
1C0380
1C0380
1C01C0
1C01C0
1C01C0
1C01C0
1C01C0
1C01C0
1C01C0
1C01C0
1C0380
1C0380
1C0700
1C1C00
FFE000
ENDCHAR
STARTCHAR char45
ENCODING 69
SWIDTH 692 0
DWIDTH 18 0
BBX 16 18 1 0
VVECTOR 9 21
SWIDTH1 0 -1000
DWIDTH1 0 -26
BITMAP 
FFFE
1C0E
1C06
1C02
1C02
1C20
1C20
1C60
1FE0
1C60
1C20
1C20
1C00
1C01
1C01
1C03
1C07
FFFF
ENDCHAR
STARTCHAR char46
ENCODING 70
SWIDTH 654 0
DWIDTH 17 0
BBX 15 18 1 0
VVECTOR 9 21
SWIDTH1 0 -1000
DWIDTH1 0 -26
BITMAP 
FFFE
1C0E
1C06
1C02
1C02
1C10
1C10
1C30
1FF0
1C30
1C10
1C10
1C00
1C00
1C00
1C00
1C00
FF80
ENDCHAR
STARTCHAR char47
ENCODING 71
SWIDTH 808 0
DWIDTH 21 0
BBX 19 18 2 0
VVECTOR 12 21
SWIDTH1 0 -1000
DWIDTH1 0 -26
BITMAP 
03F100
0C0F00
380300
700100
700100
E00100
E00000
E00000
E00000
E03FE0
E00700
E00700
E00700
700700
700700
380700
0C1B00
03E100
ENDCHAR
STARTCHAR char48
ENCODING 72
SWIDTH 808 0
DWIDTH 21 0
BBX 19 18 1 0
VVECTOR 11 21
SWIDTH1 0 -1000
DWIDTH1 0 -26
BITMAP 
FF1FE0
1C0700
1C0700
1C0700
1C0700
1C0700
1C0700
1C0700
1FFF00
1C0700
1C0700
1C0700
1C0700
1C0700
1C0700
1C0700
1C0700
FF1FE0
ENDCHAR
STARTCHAR char49
ENCODING 73
SWIDTH 385 0
DWIDTH 10 0
BBX 9 18 0 0
VVECTOR 5 21
SWIDTH1 0 -1000
DWIDTH1 0 -26
BITMAP 
FF80
1C00
1C00
1C00
1C00
1C00
1C00
1C00
1C00
1C00
1C00
1C00
1C00
1C00
1C00
1C00
1C00
FF80
ENDCHAR
STARTCHAR char4A
ENCODING 74
SWIDTH 538 0
DWIDTH 14 0
BBX 12 18 1 0
VVECTOR 7 21
SWIDTH1 0 -1000
DWIDTH1 0 -26
BITMAP 
1FF0
0380
0380
0380
0380
0380
0380
0380
0380
0380
0380
0380
0380
6380
E380
8300
4600
3800
ENDCHAR
STARTCHAR char4B
ENCODING 75
SWIDTH 808 0
DWIDTH 21 0
BBX 20 18 1 0
VVECTOR 11 21
SWIDTH1 0 -1000
DWIDTH1 0 -26
BITMAP 
FF07F0
1C0080
1C0100
1C0200
1C0400
1C0800
1C1000
1C2000
1C7000
1CB800
1D3800
1E1C00
1C0E00
1C0E00
1C0700
1C0700
1C0380
FF1FF0
ENDCHAR
STARTCHAR char4C
ENCODING 76
SWIDTH 654 0
DWIDTH 17 0
BBX 15 18 1 0
VVECTOR 9 21
SWIDTH1 0 -1000
DWIDTH1 0 -26
BITMAP 
FF80
1C00
1C00
1C00
1C00
1C00
1C00
1C00
1C00
1C00
1C00
1C00
1C00
1C02
1C02
1C06
1C0E
FFFE
ENDCHAR
STARTCHAR char4D
ENCODING 77
SWIDTH 962 0
DWIDTH 25 0
BBX 23 18 1 0
VVECTOR 13 21
SWIDTH1 0 -1000
DWIDTH1 0 -26
BITMAP 
FC007E
1C0070
1E00F0
1E00F0
170170
170170
138170
138270
11C270
11C470
10E470
10E870
106870
107870
103070
103070
380070
FE03FE
ENDCHAR
STARTCHAR char4E
ENCODING 78
SWIDTH 846 0
DWIDTH 22 0
BBX 20 18 1 0
VVECTOR 11 21
SWIDTH1 0 -1000
DWIDTH1 0 -26
BITMAP 
F007F0
1801C0
1C0080
1E0080
170080
138080
138080
11C080
10E080
107080
103880
103880
101C80
100E80
100780
100380
380180
FE0080
ENDCHAR
STARTCHAR char4F
ENCODING 79
SWIDTH 769 0
DWIDTH 20 0
BBX 16 18 2 0
VVECTOR 10 21
SWIDTH1 0 -1000
DWIDTH1 0 -26
BITMAP 
03C0
0C30
381C
700E
700E
E007
E007
E007
E007
E007
E007
E007
E007
700E
700E
381C
0C30
03C0
ENDCHAR
STARTCHAR char50
ENCODING 80
SWIDTH 692 0
DWIDTH 18 0
BBX 16 18 1 0
VVECTOR 9 21
SWIDTH1 0 -1000
DWIDTH1 0 -26
BITMAP 
FFF0
1C1C
1C0E
1C07
1C07
1C07
1C07
1C07
1C0E
1C1C
1FF0
1C00
1C00
1C00
1C00
1C00
1C00
FF80
ENDCHAR
STARTCHAR char51
ENCODING 81
SWIDTH 769 0
DWIDTH 20 0
BBX 17 21 2 -3
VVECTOR 11 21
SWIDTH1 0 -1000
DWIDTH1 0 -26
BITMAP 
03C000
0C3000
381C00
700E00
700E00
E00700
E00700
E00700
E00700
E00700
E00700
E00700
E38700
74CE00
786E00
387C00
0C7000
03E000
007080
003900
000E00
ENDCHAR
STARTCHAR char52
ENCODING 82
SWIDTH 731 0
DWIDTH 19 0
BBX 17 18 1 0
VVECTOR 10 21
SWIDTH1 0 -1000
DWIDTH1 0 -26
BITMAP 
FFE000
1C3800
1C1C00
1C0E00
1C0E00
1C0E00
1C0E00
1C1C00
1C3800
1FE000
1C1800
1C0C00
1C0E00
1C0E00
1C0E00
1C0E00
1C0E80
FF8700
ENDCHAR
STARTCHAR char53
ENCODING 83
SWIDTH 538 0
DWIDTH 14 0
BBX 11 18 2 0
VVECTOR 8 21
SWIDTH1 0 -1000
DWIDTH1 0 -26
BITMAP 
1E40
61C0
80C0
8040
C040
C040
F000
7C00
3F00
1F80
07C0
01E0
8060
8060
8020
C020
E0C0
9F00
ENDCHAR
STARTCHAR char54
ENCODING 84
SWIDTH 654 0
DWIDTH 17 0
BBX 15 18 1 0
VVECTOR 9 21
SWIDTH1 0 -1000
DWIDTH1 0 -26
BITMAP 
FFFE
E38E
C386
8382
8382
8382
0380
0380
0380
0380
0380
0380
0380
0380
0380
0380
0380
1FF0
ENDCHAR
STARTCHAR char55
ENCODING 85
SWIDTH 808 0
DWIDTH 21 0
BBX 19 18 1 0
VVECTOR 11 21
SWIDTH1 0 -1000
DWIDTH1 0 -26
BITMAP 
FF07E0
1C0100
1C0100
1C0100
1C0100
1C0100
1C0100
1C0100
1C0100
1C0100
1C0100
1C0100
1C0100
1C0100
1C0100
0C0200
060C00
01F000
ENDCHAR
STARTCHAR char56
ENCODING 86
SWIDTH 692 0
DWIDTH 18 0
BBX 17 18 0 0
VVECTOR 9 21
SWIDTH1 0 -1000
DWIDTH1 0 -26
BITMAP 
FE1F80
380600
380400
180400
1C0800
1C0800
0C0800
0E1000
0E1000
0E1000
062000
072000
072000
034000
03C000
03C000
018000
018000
ENDCHAR
STARTCHAR char57
ENCODING 87
SWIDTH 1115 0
DWIDTH 29 0
BBX 28 18 1 0
VVECTOR 15 21
SWIDTH1 0 -1000
DWIDTH1 0 -26
BITMAP 
FF1FC3F0
1C070080
1C070080
1C070080
0E038100
0E038100
0E078100
0E05C200
0709C200
0709C200
0708C400
0310E400
0390E400
03A0E800
01A06800
01E07800
00C03000
00C03000
ENDCHAR
STARTCHAR char58
ENCODING 88
SWIDTH 731 0
DWIDTH 19 0
BBX 19 18 0 0
VVECTOR 10 21
SWIDTH1 0 -1000
DWIDTH1 0 -26
BITMAP 
FF0FE0
1C0300
0E0200
0E0400
070400
038800
039000
01D000
00E000
00E000
017000
023800
023800
041C00
080E00
080E00
180700
FE1FE0
ENDCHAR
STARTCHAR char59
ENCODING 89
SWIDTH 731 0
DWIDTH 19 0
BBX 19 18 0 0
VVECTOR 10 21
SWIDTH1 0 -1000
DWIDTH1 0 -26
BITMAP 
FF0FE0
1C0100
1C0100
0E0200
0E0200
070400
070400
038800
038800
01D000
00E000
00E000
00E000
00E000
00E000
00E000
00E000
07FC00
ENDCHAR
STARTCHAR char5A
ENCODING 90
SWIDTH 577 0
DWIDTH 15 0
BBX 11 18 2 0
VVECTOR 8 21
SWIDTH1 0 -1000
DWIDTH1 0 -26
BITMAP 
FFE0
E0E0
C1C0
81C0
8380
0380
0700
0700
0E00
0E00
1C00
1C00
3800
3820
7020
7060
E0E0
FFE0
ENDCHAR
STARTCHAR char5B
ENCODING 91
SWIDTH 346 0
DWIDTH 9 0
BBX 6 24 2 -4
VVECTOR 5 21
SWIDTH1 0 -1000
DWIDTH1 0 -26
BITMAP 
FC
E0
E0
E0
E0
E0
E0
E0
E0
E0
E0
E0
E0
E0
E0
E0
E0
E0
E0
E0
E0
E0
E0
FC
ENDCHAR
STARTCHAR char5C
ENCODING 92
SWIDTH 346 0
DWIDTH 9 0
BBX 7 18 1 0
VVECTOR 5 21
SWIDTH1 0 -1000
DWIDTH1 0 -26
BITMAP 
80
80
80
40
40
20
20
10
10
10
08
08
04
04
04
02
02
02
ENDCHAR
STARTCHAR char5D
ENCODING 93
SWIDTH 346 0
DWIDTH 9 0
BBX 6 24 1 -4
VVECTOR 4 21
SWIDTH1 0 -1000
DWIDTH1 0 -26
BITMAP 
FC
1C
1C
1C
1C
1C
1C
1C
1C
1C
1C
1C
1C
1C
1C
1C
1C
1C
1C
1C
1C
1C
1C
FC
ENDCHAR
STARTCHAR char5E
ENCODING 94
SWIDTH 538 0
DWIDTH 14 0
BBX 7 3 4 18
VVECTOR 8 21
SWIDTH1 0 -1000
DWIDTH1 0 -26
BITMAP 
38
6C
C6
ENDCHAR
STARTCHAR char5F
ENCODING 95
SWIDTH 769 0
DWIDTH 20 0
BBX 20 1 0 -5
VVECTOR 10 21
SWIDTH1 0 -1000
DWIDTH1 0 -26
BITMAP 
FFFFF0
ENDCHAR
STARTCHAR char60
ENCODING 96
SWIDTH 538 0
DWIDTH 14 0
BBX 5 4 4 17
VVECTOR 7 21
SWIDTH1 0 -1000
DWIDTH1 0 -26
BITMAP 
C0
E0
30
08
ENDCHAR
STARTCHAR char61
ENCODING 97
SWIDTH 615 0
DWIDTH 16 0
BBX 14 13 2 0
VVECTOR 9 21
SWIDTH1 0 -1000
DWIDTH1 0 -26
BITMAP 
0F00
31C0
78E0
38E0
00E0
03E0
1CE0
70E0
E0E0
E0E0
E0E0
7364
1C38
ENDCHAR
STARTCHAR char62
ENCODING 98
SWIDTH 654 0
DWIDTH 17 0
BBX 14 18 1 0
VVECTOR 8 21
SWIDTH1 0 -1000
DWIDTH1 0 -26
BITMAP 
F800
3800
3800
3800
3800
39C0
3A30
3C18
381C
381C
381C
381C
381C
381C
381C
3C18
3230
21C0
ENDCHAR
STARTCHAR char63
ENCODING 99
SWIDTH 500 0
DWIDTH 13 0
BBX 10 13 2 0
VVECTOR 7 21
SWIDTH1 0 -1000
DWIDTH1 0 -26
BITMAP 
0F00
3080
6040
E1C0
E180
E000
E000
E000
E000
E000
6040
3080
0F00
ENDCHAR
STARTCHAR char64
ENCODING 100
SWIDTH 654 0
DWIDTH 17 0
BBX 14 18 2 0
VVECTOR 9 21
SWIDTH1 0 -1000
DWIDTH1 0 -26
BITMAP 
01F0
0070
0070
0070
0070
0E70
3170
60F0
E070
E070
E070
E070
E070
E070
E070
60F0
3170
0E7C
ENDCHAR
STARTCHAR char65
ENCODING 101
SWIDTH 538 0
DWIDTH 14 0
BBX 10 13 2 0
VVECTOR 7 21
SWIDTH1 0 -1000
DWIDTH1 0 -26
BITMAP 
0C00
3300
6180
E1C0
E1C0
E1C0
FFC0
E000
E000
E000
6080
3100
0E00
ENDCHAR
STARTCHAR char66
ENCODING 102
SWIDTH 500 0
DWIDTH 13 0
BBX 11 18 1 0
VVECTOR 7 21
SWIDTH1 0 -1000
DWIDTH1 0 -26
BITMAP 
0380
0C40
1CE0
1CC0
1C00
1C00
FF80
1C00
1C00
1C00
1C00
1C00
1C00
1C00
1C00
1C00
1C00
FF80
ENDCHAR
STARTCHAR char67
ENCODING 103
SWIDTH 538 0
DWIDTH 14 0
BBX 12 21 1 -5
VVECTOR 7 21
SWIDTH1 0 -1000
DWIDTH1 0 -26
BITMAP 
00E0
0160
0100
0600
1980
30C0
70E0
70E0
30C0
1980
0600
1800
3000
3000
1F00
70E0
E070
E070
E070
70E0
0F00
ENDCHAR
STARTCHAR char68
ENCODING 104
SWIDTH 692 0
DWIDTH 18 0
BBX 15 18 1 0
VVECTOR 9 21
SWIDTH1 0 -1000
DWIDTH1 0 -26
BITMAP 
F800
3800
3800
3800
3800
39C0
3A70
3C38
3838
3838
3838
3838
3838
3838
3838
3838
3838
FE3E
ENDCHAR
STARTCHAR char69
ENCODING 105
SWIDTH 346 0
DWIDTH 9 0
BBX 7 18 1 0
VVECTOR 5 21
SWIDTH1 0 -1000
DWIDTH1 0 -26
BITMAP 
38
38
00
00
00
F8
38
38
38
38
38
38
38
38
38
38
38
FE
ENDCHAR
STARTCHAR char6A
ENCODING 106
SWIDTH 346 0
DWIDTH 9 0
BBX 7 23 0 -5
VVECTOR 4 21
SWIDTH1 0 -1000
DWIDTH1 0 -26
BITMAP 
0E
0E
00
00
00
3E
0E
0E
0E
0E
0E
0E
0E
0E
0E
0E
0E
0E
0E
6E
EE
4C
30
ENDCHAR
STARTCHAR char6B
ENCODING 107
SWIDTH 654 0
DWIDTH 17 0
BBX 15 18 1 0
VVECTOR 9 21
SWIDTH1 0 -1000
DWIDTH1 0 -26
BITMAP 
F800
3800
3800
3800
3800
387C
3810
3820
3840
3880
3900
3B00
3F80
39C0
38E0
3870
3838
FE1E
ENDCHAR
STARTCHAR char6C
ENCODING 108
SWIDTH 346 0
DWIDTH 9 0
BBX 7 18 1 0
VVECTOR 5 21
SWIDTH1 0 -1000
DWIDTH1 0 -26
BITMAP 
F8
38
38
38
38
38
38
38
38
38
38
38
38
38
38
38
38
FE
ENDCHAR
STARTCHAR char6D
ENCODING 109
SWIDTH 962 0
DWIDTH 25 0
BBX 23 13 1 0
VVECTOR 13 21
SWIDTH1 0 -1000
DWIDTH1 0 -26
BITMAP 
F9C1C0
3A7270
3C3C38
383838
383838
383838
383838
383838
383838
383838
383838
383838
FE3E3E
ENDCHAR
STARTCHAR char6E
ENCODING 110
SWIDTH 692 0
DWIDTH 18 0
BBX 16 13 1 0
VVECTOR 9 21
SWIDTH1 0 -1000
DWIDTH1 0 -26
BITMAP 
F9E0
3A38
3C1C
381C
381C
381C
381C
381C
381C
381C
381C
381C
FE1F
ENDCHAR
STARTCHAR char6F
ENCODING 111
SWIDTH 577 0
DWIDTH 15 0
BBX 11 13 2 0
VVECTOR 8 21
SWIDTH1 0 -1000
DWIDTH1 0 -26
BITMAP 
0E00
3180
60C0
E0E0
E0E0
E0E0
E0E0
E0E0
E0E0
E0E0
60C0
3180
0E00
ENDCHAR
STARTCHAR char70
ENCODING 112
SWIDTH 654 0
DWIDTH 17 0
BBX 14 18 1 -5
VVECTOR 8 21
SWIDTH1 0 -1000
DWIDTH1 0 -26
BITMAP 
F9C0
3A30
3C18
381C
381C
381C
381C
381C
381C
381C
3C18
3A30
39C0
3800
3800
3800
3800
FE00
ENDCHAR
STARTCHAR char71
ENCODING 113
SWIDTH 615 0
DWIDTH 16 0
BBX 14 18 2 -5
VVECTOR 9 21
SWIDTH1 0 -1000
DWIDTH1 0 -26
BITMAP 
0E10
3130
60F0
E070
E070
E070
E070
E070
E070
E070
60F0
3170
0E70
0070
0070
0070
0070
01FC
ENDCHAR
STARTCHAR char72
ENCODING 114
SWIDTH 500 0
DWIDTH 13 0
BBX 12 13 1 0
VVECTOR 7 21
SWIDTH1 0 -1000
DWIDTH1 0 -26
BITMAP 
F980
3A60
3C30
38E0
38C0
3800
3800
3800
3800
3800
3800
3800
FE00
ENDCHAR
STARTCHAR char73
ENCODING 115
SWIDTH 423 0
DWIDTH 11 0
BBX 8 13 2 0
VVECTOR 6 21
SWIDTH1 0 -1000
DWIDTH1 0 -26
BITMAP 
39
47
83
C1
F1
7C
3E
0F
83
81
C1
E2
9C
ENDCHAR
STARTCHAR char74
ENCODING 116
SWIDTH 423 0
DWIDTH 11 0
BBX 9 16 1 0
VVECTOR 6 21
SWIDTH1 0 -1000
DWIDTH1 0 -26
BITMAP 
0400
0400
0C00
FF80
1C00
1C00
1C00
1C00
1C00
1C00
1C00
1C00
1C00
1C00
0C80
0700
ENDCHAR
STARTCHAR char75
ENCODING 117
SWIDTH 654 0
DWIDTH 17 0
BBX 15 13 1 0
VVECTOR 9 21
SWIDTH1 0 -1000
DWIDTH1 0 -26
BITMAP 
F8F8
3838
3838
3838
3838
3838
3838
3838
3838
3838
3878
1CB8
073E
ENDCHAR
STARTCHAR char76
ENCODING 118
SWIDTH 654 0
DWIDTH 17 0
BBX 15 13 1 0
VVECTOR 9 21
SWIDTH1 0 -1000
DWIDTH1 0 -26
BITMAP 
FE3E
3808
3808
1C10
1C10
0E20
0E20
0620
0740
0340
0380
0180
0180
ENDCHAR
STARTCHAR char77
ENCODING 119
SWIDTH 923 0
DWIDTH 24 0
BBX 22 13 1 0
VVECTOR 12 21
SWIDTH1 0 -1000
DWIDTH1 0 -26
BITMAP 
FC7C7C
383810
383810
1C1C20
1C1C20
1C3C20
0E2E40
0E4E40
0E4E40
068680
078780
030300
030300
ENDCHAR
STARTCHAR char78
ENCODING 120
SWIDTH 577 0
DWIDTH 15 0
BBX 14 13 1 0
VVECTOR 8 21
SWIDTH1 0 -1000
DWIDTH1 0 -26
BITMAP 
FC7C
3810
1C20
1C20
0E40
0780
0780
0780
09C0
11C0
10E0
2070
F8FC
ENDCHAR
STARTCHAR char79
ENCODING 121
SWIDTH 654 0
DWIDTH 17 0
BBX 16 18 1 -5
VVECTOR 9 21
SWIDTH1 0 -1000
DWIDTH1 0 -26
BITMAP 
FE1F
3804
3804
3808
1C08
1C10
0E10
0E20
0E20
0740
0740
0380
0380
0100
7100
F200
6200
1C00
ENDCHAR
STARTCHAR char7A
ENCODING 122
SWIDTH 500 0
DWIDTH 13 0
BBX 11 13 1 0
VVECTOR 7 21
SWIDTH1 0 -1000
DWIDTH1 0 -26
BITMAP 
FFE0
C0E0
81C0
8380
0380
0700
0E00
1C00
1C00
3820
7020
E060
FFE0
ENDCHAR
STARTCHAR char7B
ENCODING 123
SWIDTH 385 0
DWIDTH 10 0
BBX 8 24 1 -4
VVECTOR 5 21
SWIDTH1 0 -1000
DWIDTH1 0 -26
BITMAP 
07
0C
1C
1C
1C
1C
1C
1C
1C
18
30
E0
30
18
1C
1C
1C
1C
1C
1C
1C
1C
0C
07
ENDCHAR
STARTCHAR char7C
ENCODING 124
SWIDTH 231 0
DWIDTH 6 0
BBX 1 23 2 -3
VVECTOR 3 21
SWIDTH1 0 -1000
DWIDTH1 0 -26
BITMAP 
80
80
80
80
80
80
80
80
80
80
80
80
80
80
80
80
80
80
80
80
80
80
80
ENDCHAR
STARTCHAR char7D
ENCODING 125
SWIDTH 385 0
DWIDTH 10 0
BBX 8 24 1 -4
VVECTOR 5 21
SWIDTH1 0 -1000
DWIDTH1 0 -26
BITMAP 
E0
30
38
38
38
38
38
38
38
18
0C
07
0C
18
38
38
38
38
38
38
38
38
30
E0
ENDCHAR
STARTCHAR char7E
ENCODING 126
SWIDTH 538 0
DWIDTH 14 0
BBX 10 3 2 18
VVECTOR 7 21
SWIDTH1 0 -1000
DWIDTH1 0 -26
BITMAP 
3840
4C80
8700
ENDCHAR
STARTCHAR char7F
ENCODING 127
SWIDTH 38 0
DWIDTH 1 0
BBX 0 0 1 -5
VVECTOR 1 -5
SWIDTH1 0 0
DWIDTH1 0 0
BITMAP 
ENDCHAR
STARTCHAR char80
ENCODING 128
SWIDTH 731 0
DWIDTH 19 0
BBX 19 21 0 0
VVECTOR 10 21
SWIDTH1 0 -1000
DWIDTH1 0 -26
BITMAP 
061800
061800
000000
00C000
00C000
01E000
016000
017000
027000
023000
023800
043800
041800
041C00
0FFC00
080C00
080E00
100E00
100600
380F00
FE3FE0
ENDCHAR
STARTCHAR char81
ENCODING 129
SWIDTH 731 0
DWIDTH 19 0
BBX 19 21 0 0
VVECTOR 10 21
SWIDTH1 0 -1000
DWIDTH1 0 -26
BITMAP 
00C000
012000
012000
00C000
00C000
01E000
016000
017000
027000
023000
023800
043800
041800
041C00
0FFC00
080C00
080E00
100E00
100600
380F00
FE3FE0
ENDCHAR
STARTCHAR char82
ENCODING 130
SWIDTH 654 0
DWIDTH 17 0
BBX 14 23 2 -5
VVECTOR 9 21
SWIDTH1 0 -1000
DWIDTH1 0 -26
BITMAP 
03C8
0C38
3818
7008
7008
E000
E000
E000
E000
E000
E000
E000
E000
7004
7004
3808
0C30
03C0
0100
0380
0040
0840
0780
ENDCHAR
STARTCHAR char83
ENCODING 131
SWIDTH 692 0
DWIDTH 18 0
BBX 16 21 1 0
VVECTOR 9 21
SWIDTH1 0 -1000
DWIDTH1 0 -26
BITMAP 
0038
0060
0080
0000
FFFE
1C0E
1C06
1C02
1C02
1C10
1C10
1C30
1FF0
1C30
1C10
1C10
1C01
1C01
1C03
1C07
FFFF
ENDCHAR
STARTCHAR char84
ENCODING 132
SWIDTH 846 0
DWIDTH 22 0
BBX 20 21 1 0
VVECTOR 11 21
SWIDTH1 0 -1000
DWIDTH1 0 -26
BITMAP 
038400
04C800
087000
000000
F007F0
1801C0
1C0080
1E0080
170080
138080
11C080
10E080
10E080
107080
103880
101C80
100E80
100780
100380
380180
FE0080
ENDCHAR
STARTCHAR char85
ENCODING 133
SWIDTH 769 0
DWIDTH 20 0
BBX 16 21 2 0
VVECTOR 10 21
SWIDTH1 0 -1000
DWIDTH1 0 -26
BITMAP 
1818
1818
0000
03C0
0C30
381C
700E
700E
E007
E007
E007
E007
E007
E007
E007
E007
700E
700E
381C
0C30
03C0
ENDCHAR
STARTCHAR char86
ENCODING 134
SWIDTH 808 0
DWIDTH 21 0
BBX 19 21 1 0
VVECTOR 11 21
SWIDTH1 0 -1000
DWIDTH1 0 -26
BITMAP 
030600
030600
000000
000000
FF87E0
1C0100
1C0100
1C0100
1C0100
1C0100
1C0100
1C0100
1C0100
1C0100
1C0100
1C0100
1C0100
1C0100
0C0200
060C00
01F000
ENDCHAR
STARTCHAR char87
ENCODING 135
SWIDTH 615 0
DWIDTH 16 0
BBX 13 19 2 0
VVECTOR 9 21
SWIDTH1 0 -1000
DWIDTH1 0 -26
BITMAP 
0060
00E0
0180
0200
0000
0000
0F00
31C0
78E0
38E0
00E0
03E0
1CE0
70E0
E0E0
E0E0
E0E0
7368
1C30
ENDCHAR
STARTCHAR char88
ENCODING 136
SWIDTH 615 0
DWIDTH 16 0
BBX 13 19 2 0
VVECTOR 9 21
SWIDTH1 0 -1000
DWIDTH1 0 -26
BITMAP 
3000
3800
0C00
0200
0000
0000
0F00
31C0
78E0
38E0
00E0
03E0
1CE0
70E0
E0E0
E0E0
E0E0
7368
1C30
ENDCHAR
STARTCHAR char89
ENCODING 137
SWIDTH 615 0
DWIDTH 16 0
BBX 13 19 2 0
VVECTOR 9 21
SWIDTH1 0 -1000
DWIDTH1 0 -26
BITMAP 
0600
0F00
1980
30C0
0000
0000
0F00
31C0
78E0
38E0
00E0
03E0
1CE0
70E0
E0E0
E0E0
E0E0
7368
1C30
ENDCHAR
STARTCHAR char8A
ENCODING 138
SWIDTH 615 0
DWIDTH 16 0
BBX 13 17 2 0
VVECTOR 9 21
SWIDTH1 0 -1000
DWIDTH1 0 -26
BITMAP 
30C0
30C0
0000
0000
0F00
31C0
78E0
38E0
00E0
03E0
1CE0
70E0
E0E0
E0E0
E0E0
7368
1C30
ENDCHAR
STARTCHAR char8B
ENCODING 139
SWIDTH 615 0
DWIDTH 16 0
BBX 13 18 2 0
VVECTOR 9 21
SWIDTH1 0 -1000
DWIDTH1 0 -26
BITMAP 
1C20
2640
4380
0000
0000
0F00
31C0
78E0
38E0
00E0
03E0
1CE0
70E0
E0E0
E0E0
E0E0
7368
1C30
ENDCHAR
STARTCHAR char8C
ENCODING 140
SWIDTH 615 0
DWIDTH 16 0
BBX 13 19 2 0
VVECTOR 9 21
SWIDTH1 0 -1000
DWIDTH1 0 -26
BITMAP 
0700
0880
0880
0700
0000
0000
0F00
31C0
78E0
38E0
00E0
03E0
1CE0
70E0
E0E0
E0E0
E0E0
7368
1C30
ENDCHAR
STARTCHAR char8D
ENCODING 141
SWIDTH 500 0
DWIDTH 13 0
BBX 10 18 2 -5
VVECTOR 7 21
SWIDTH1 0 -1000
DWIDTH1 0 -26
BITMAP 
0F00
3080
6040
E1C0
E180
E000
E000
E000
E000
E000
6040
3080
0F00
0400
0E00
0100
2100
1E00
ENDCHAR
STARTCHAR char8E
ENCODING 142
SWIDTH 538 0
DWIDTH 14 0
BBX 10 19 2 0
VVECTOR 7 21
SWIDTH1 0 -1000
DWIDTH1 0 -26
BITMAP 
0180
0380
0600
0800
0000
0000
0C00
3300
6180
E1C0
E1C0
E1C0
FFC0
E000
E000
E000
6080
3100
0E00
ENDCHAR
STARTCHAR char8F
ENCODING 143
SWIDTH 538 0
DWIDTH 14 0
BBX 10 19 2 0
VVECTOR 7 21
SWIDTH1 0 -1000
DWIDTH1 0 -26
BITMAP 
6000
7000
1800
0400
0000
0000
0C00
3300
6180
E1C0
E1C0
E1C0
FFC0
E000
E000
E000
6080
3100
0E00
ENDCHAR
STARTCHAR char90
ENCODING 144
SWIDTH 538 0
DWIDTH 14 0
BBX 10 19 2 0
VVECTOR 7 21
SWIDTH1 0 -1000
DWIDTH1 0 -26
BITMAP 
0C00
1E00
3300
6180
0000
0000
0C00
3300
6180
E1C0
E1C0
E1C0
FFC0
E000
E000
E000
6080
3100
0E00
ENDCHAR
STARTCHAR char91
ENCODING 145
SWIDTH 538 0
DWIDTH 14 0
BBX 10 17 2 0
VVECTOR 7 21
SWIDTH1 0 -1000
DWIDTH1 0 -26
BITMAP 
6180
6180
0000
0000
0C00
3300
6180
E1C0
E1C0
E1C0
FFC0
E000
E000
E000
6080
3100
0E00
ENDCHAR
STARTCHAR char92
ENCODING 146
SWIDTH 346 0
DWIDTH 9 0
BBX 8 19 1 0
VVECTOR 5 21
SWIDTH1 0 -1000
DWIDTH1 0 -26
BITMAP 
03
07
0C
10
00
00
F8
38
38
38
38
38
38
38
38
38
38
38
FE
ENDCHAR
STARTCHAR char93
ENCODING 147
SWIDTH 346 0
DWIDTH 9 0
BBX 8 19 0 0
VVECTOR 4 21
SWIDTH1 0 -1000
DWIDTH1 0 -26
BITMAP 
C0
E0
30
08
00
00
7C
1C
1C
1C
1C
1C
1C
1C
1C
1C
1C
1C
7F
ENDCHAR
STARTCHAR char94
ENCODING 148
SWIDTH 346 0
DWIDTH 9 0
BBX 8 19 0 0
VVECTOR 4 21
SWIDTH1 0 -1000
DWIDTH1 0 -26
BITMAP 
18
3C
66
C3
00
00
7C
1C
1C
1C
1C
1C
1C
1C
1C
1C
1C
1C
7F
ENDCHAR
STARTCHAR char95
ENCODING 149
SWIDTH 346 0
DWIDTH 9 0
BBX 7 17 1 0
VVECTOR 5 21
SWIDTH1 0 -1000
DWIDTH1 0 -26
BITMAP 
C6
C6
00
00
F8
38
38
38
38
38
38
38
38
38
38
38
FE
ENDCHAR
STARTCHAR char96
ENCODING 150
SWIDTH 692 0
DWIDTH 18 0
BBX 16 18 1 0
VVECTOR 9 21
SWIDTH1 0 -1000
DWIDTH1 0 -26
BITMAP 
0708
0990
10E0
0000
0000
F9E0
3A38
3C1C
381C
381C
381C
381C
381C
381C
381C
381C
381C
FE1F
ENDCHAR
STARTCHAR char97
ENCODING 151
SWIDTH 577 0
DWIDTH 15 0
BBX 11 19 2 0
VVECTOR 8 21
SWIDTH1 0 -1000
DWIDTH1 0 -26
BITMAP 
00C0
01C0
0300
0400
0000
0000
0E00
3180
60C0
E0E0
E0E0
E0E0
E0E0
E0E0
E0E0
E0E0
60C0
3180
0E00
ENDCHAR
STARTCHAR char98
ENCODING 152
SWIDTH 577 0
DWIDTH 15 0
BBX 11 19 2 0
VVECTOR 8 21
SWIDTH1 0 -1000
DWIDTH1 0 -26
BITMAP 
6000
7000
1800
0400
0000
0000
0E00
3180
60C0
E0E0
E0E0
E0E0
E0E0
E0E0
E0E0
E0E0
60C0
3180
0E00
ENDCHAR
STARTCHAR char99
ENCODING 153
SWIDTH 577 0
DWIDTH 15 0
BBX 11 19 2 0
VVECTOR 8 21
SWIDTH1 0 -1000
DWIDTH1 0 -26
BITMAP 
0400
0E00
1B00
3180
0000
0000
0E00
3180
60C0
E0E0
E0E0
E0E0
E0E0
E0E0
E0E0
E0E0
60C0
3180
0E00
ENDCHAR
STARTCHAR char9A
ENCODING 154
SWIDTH 577 0
DWIDTH 15 0
BBX 11 17 2 0
VVECTOR 8 21
SWIDTH1 0 -1000
DWIDTH1 0 -26
BITMAP 
3180
3180
0000
0000
0E00
3180
60C0
E0E0
E0E0
E0E0
E0E0
E0E0
E0E0
E0E0
60C0
3180
0E00
ENDCHAR
STARTCHAR char9B
ENCODING 155
SWIDTH 577 0
DWIDTH 15 0
BBX 11 18 2 0
VVECTOR 8 21
SWIDTH1 0 -1000
DWIDTH1 0 -26
BITMAP 
1C20
2640
4380
0000
0000
0E00
3180
60C0
E0E0
E0E0
E0E0
E0E0
E0E0
E0E0
E0E0
60C0
3180
0E00
ENDCHAR
STARTCHAR char9C
ENCODING 156
SWIDTH 654 0
DWIDTH 17 0
BBX 15 19 1 0
VVECTOR 9 21
SWIDTH1 0 -1000
DWIDTH1 0 -26
BITMAP 
0030
0070
00C0
0100
0000
0000
F8F8
3838
3838
3838
3838
3838
3838
3838
3838
3838
3878
1CB8
073E
ENDCHAR
STARTCHAR char9D
ENCODING 157
SWIDTH 654 0
DWIDTH 17 0
BBX 15 19 1 0
VVECTOR 9 21
SWIDTH1 0 -1000
DWIDTH1 0 -26
BITMAP 
1800
1C00
0600
0100
0000
0000
F8F8
3838
3838
3838
3838
3838
3838
3838
3838
3838
3878
1CB8
073E
ENDCHAR
STARTCHAR char9E
ENCODING 158
SWIDTH 654 0
DWIDTH 17 0
BBX 15 19 1 0
VVECTOR 9 21
SWIDTH1 0 -1000
DWIDTH1 0 -26
BITMAP 
0180
03C0
0660
0C30
0000
0000
F8F8
3838
3838
3838
3838
3838
3838
3838
3838
3838
3878
1CB8
073E
ENDCHAR
STARTCHAR char9F
ENCODING 159
SWIDTH 654 0
DWIDTH 17 0
BBX 15 17 1 0
VVECTOR 9 21
SWIDTH1 0 -1000
DWIDTH1 0 -26
BITMAP 
0C60
0C60
0000
0000
F8F8
3838
3838
3838
3838
3838
3838
3838
3838
3838
3878
1CB8
073E
ENDCHAR
STARTCHAR charA0
ENCODING 160
SWIDTH 538 0
DWIDTH 14 0
BBX 10 19 1 -1
VVECTOR 6 21
SWIDTH1 0 -1000
DWIDTH1 0 -26
BITMAP 
0C00
0C00
0C00
8C40
8C40
CCC0
FFC0
CCC0
8C40
8C40
0C00
0C00
0C00
0C00
0C00
0C00
0C00
0C00
0C00
ENDCHAR
STARTCHAR charA1
ENCODING 161
SWIDTH 346 0
DWIDTH 9 0
BBX 6 5 1 13
VVECTOR 4 21
SWIDTH1 0 -1000
DWIDTH1 0 -26
BITMAP 
78
CC
CC
CC
78
ENDCHAR
STARTCHAR charA2
ENCODING 162
SWIDTH 538 0
DWIDTH 14 0
BBX 12 17 1 1
VVECTOR 7 21
SWIDTH1 0 -1000
DWIDTH1 0 -26
BITMAP 
0200
0200
0200
0FC0
3220
6270
E260
E200
E200
E200
E200
6220
3240
0F80
0200
0200
0200
ENDCHAR
STARTCHAR charA3
ENCODING 163
SWIDTH 538 0
DWIDTH 14 0
BBX 13 18 0 0
VVECTOR 7 21
SWIDTH1 0 -1000
DWIDTH1 0 -26
BITMAP 
0F00
10C0
21C0
3180
3000
3800
1800
1C00
FFC0
0E00
0700
0700
0380
0380
39C0
6580
6308
3EF0
ENDCHAR
STARTCHAR charA4
ENCODING 164
SWIDTH 538 0
DWIDTH 14 0
BBX 10 17 2 0
VVECTOR 7 21
SWIDTH1 0 -1000
DWIDTH1 0 -26
BITMAP 
1E00
6180
C300
E000
7800
1E00
6780
C1C0
C0C0
E0C0
7980
1E00
0780
01C0
30C0
6180
1E00
ENDCHAR
STARTCHAR charA5
ENCODING 165
SWIDTH 346 0
DWIDTH 9 0
BBX 6 6 1 7
VVECTOR 4 21
SWIDTH1 0 -1000
DWIDTH1 0 -26
BITMAP 
78
FC
FC
FC
FC
78
ENDCHAR
STARTCHAR charA6
ENCODING 166
SWIDTH 538 0
DWIDTH 14 0
BBX 12 18 1 0
VVECTOR 7 21
SWIDTH1 0 -1000
DWIDTH1 0 -26
BITMAP 
3CF0
4CC0
CCC0
CCC0
CCC0
CCC0
CCC0
CCC0
4CC0
3CC0
0CC0
0CC0
0CC0
0CC0
0CC0
0CC0
0CC0
0CC0
ENDCHAR
STARTCHAR charA7
ENCODING 167
SWIDTH 654 0
DWIDTH 17 0
BBX 15 18 1 0
VVECTOR 9 21
SWIDTH1 0 -1000
DWIDTH1 0 -26
BITMAP 
0380
0C60
1830
3838
3838
3830
38C0
3900
3980
38E0
3878
381C
380E
3A06
3A06
3B04
3B88
FA70
ENDCHAR
STARTCHAR charA8
ENCODING 168
SWIDTH 769 0
DWIDTH 20 0
BBX 15 15 2 1
VVECTOR 10 21
SWIDTH1 0 -1000
DWIDTH1 0 -26
BITMAP 
0FE0
3018
4004
4004
8FC2
8C62
8C62
8FC2
8C62
8C62
8C62
4004
4004
3018
0FE0
ENDCHAR
STARTCHAR charA9
ENCODING 169
SWIDTH 769 0
DWIDTH 20 0
BBX 16 15 2 1
VVECTOR 10 21
SWIDTH1 0 -1000
DWIDTH1 0 -26
BITMAP 
0FF0
300C
4002
4002
81E1
8611
8C01
8C01
8C01
8611
81E1
4002
4002
300C
0FF0
ENDCHAR
STARTCHAR charAA
ENCODING 170
SWIDTH 538 0
DWIDTH 14 0
BBX 11 4 1 14
VVECTOR 7 21
SWIDTH1 0 -1000
DWIDTH1 0 -26
BITMAP 
FC20
2660
25A0
2420
ENDCHAR
STARTCHAR charAB
ENCODING 171
SWIDTH 538 0
DWIDTH 14 0
BBX 5 4 5 17
VVECTOR 8 21
SWIDTH1 0 -1000
DWIDTH1 0 -26
BITMAP 
18
38
60
80
ENDCHAR
STARTCHAR charAC
ENCODING 172
SWIDTH 538 0
DWIDTH 14 0
BBX 8 2 3 19
VVECTOR 7 21
SWIDTH1 0 -1000
DWIDTH1 0 -26
BITMAP 
C3
C3
ENDCHAR
STARTCHAR charAD
ENCODING 173
SWIDTH 808 0
DWIDTH 21 0
BBX 17 10 2 4
VVECTOR 11 21
SWIDTH1 0 -1000
DWIDTH1 0 -26
BITMAP 
000400
000800
001000
FFFF80
004000
008000
FFFF80
020000
040000
080000
ENDCHAR
STARTCHAR charAE
ENCODING 174
SWIDTH 1000 0
DWIDTH 26 0
BBX 24 18 0 0
VVECTOR 12 21
SWIDTH1 0 -1000
DWIDTH1 0 -26
BITMAP 
01FFFF
002707
002703
004701
004701
008700
008708
008708
010718
0107F8
03FF18
020708
040708
040701
080701
080703
180707
FE1FFF
ENDCHAR
STARTCHAR charAF
ENCODING 175
SWIDTH 769 0
DWIDTH 20 0
BBX 16 18 2 0
VVECTOR 10 21
SWIDTH1 0 -1000
DWIDTH1 0 -26
BITMAP 
03C0
0C31
381E
700E
700E
E017
E027
E047
E087
E107
E207
E407
E807
700E
700E
781C
8C30
03C0
ENDCHAR
STARTCHAR charB0
ENCODING 176
SWIDTH 769 0
DWIDTH 20 0
BBX 18 8 1 5
VVECTOR 10 21
SWIDTH1 0 -1000
DWIDTH1 0 -26
BITMAP 
380F00
463880
817040
80E040
81C040
83A040
471880
3C0700
ENDCHAR
STARTCHAR charB1
ENCODING 177
SWIDTH 769 0
DWIDTH 20 0
BBX 16 16 2 0
VVECTOR 10 21
SWIDTH1 0 -1000
DWIDTH1 0 -26
BITMAP 
0180
0180
0180
0180
0180
0180
FFFF
0180
0180
0180
0180
0180
0180
0000
0000
FFFF
ENDCHAR
STARTCHAR charB2
ENCODING 178
SWIDTH 538 0
DWIDTH 14 0
BBX 11 16 2 0
VVECTOR 8 21
SWIDTH1 0 -1000
DWIDTH1 0 -26
BITMAP 
0180
0300
0600
0C00
1800
3000
6000
3000
1800
0C00
0600
0300
0180
0000
0000
FFE0
ENDCHAR
STARTCHAR charB3
ENCODING 179
SWIDTH 538 0
DWIDTH 14 0
BBX 11 16 2 0
VVECTOR 8 21
SWIDTH1 0 -1000
DWIDTH1 0 -26
BITMAP 
3000
1800
0C00
0600
0300
0180
00C0
0180
0300
0600
0C00
1800
3000
0000
0000
FFE0
ENDCHAR
STARTCHAR charB4
ENCODING 180
SWIDTH 769 0
DWIDTH 20 0
BBX 19 18 1 0
VVECTOR 11 21
SWIDTH1 0 -1000
DWIDTH1 0 -26
BITMAP 
FF07E0
1C0100
1C0100
0E0200
0E0200
070400
070400
7F8FC0
038800
01D000
7FFFC0
00E000
00E000
00E000
00E000
00E000
00E000
07FC00
ENDCHAR
STARTCHAR charB5
ENCODING 181
SWIDTH 615 0
DWIDTH 16 0
BBX 13 17 2 -4
VVECTOR 9 21
SWIDTH1 0 -1000
DWIDTH1 0 -26
BITMAP 
E0E0
E0E0
E0E0
E0E0
E0E0
E0E0
E0E0
E0E0
E0E0
E0E0
E0E0
F168
EE30
E000
C000
8000
8000
ENDCHAR
STARTCHAR charB6
ENCODING 182
SWIDTH 577 0
DWIDTH 15 0
BBX 12 18 1 0
VVECTOR 7 21
SWIDTH1 0 -1000
DWIDTH1 0 -26
BITMAP 
0F00
30C0
7860
3870
0070
0070
0E70
3170
60F0
E070
E070
E070
E070
E070
E070
6060
30C0
0F00
ENDCHAR
STARTCHAR charB7
ENCODING 183
SWIDTH 769 0
DWIDTH 20 0
BBX 16 24 2 -4
VVECTOR 10 21
SWIDTH1 0 -1000
DWIDTH1 0 -26
BITMAP 
FFFC
E002
7001
3800
1C00
0E00
0700
0380
01C0
00E0
0070
0038
0020
0040
0080
0100
0200
0400
0800
1000
2001
4002
FFFC
FFF8
ENDCHAR
STARTCHAR charB8
ENCODING 184
SWIDTH 731 0
DWIDTH 19 0
BBX 18 18 0 0
VVECTOR 9 21
SWIDTH1 0 -1000
DWIDTH1 0 -26
BITMAP 
FFFFC0
0E1C00
0E1C00
0E1C00
0E1C00
0E1C00
0E1C00
0E1C00
0E1C00
0E1C00
0E1C00
0E1C00
0E1C00
0E1C00
0E1C00
0E1C00
0E1C00
7F3F80
ENDCHAR
STARTCHAR charB9
ENCODING 185
SWIDTH 769 0
DWIDTH 20 0
BBX 18 14 1 0
VVECTOR 10 21
SWIDTH1 0 -1000
DWIDTH1 0 -26
BITMAP 
000040
7FFF80
820400
060C00
0E1C00
0E1C00
0E1C00
0E1C00
0E1C00
0E1C00
0E1C00
0C1800
081000
102000
ENDCHAR
STARTCHAR charBA
ENCODING 186
SWIDTH 538 0
DWIDTH 14 0
BBX 11 24 1 -4
VVECTOR 7 21
SWIDTH1 0 -1000
DWIDTH1 0 -26
BITMAP 
01C0
0220
0660
0E00
0E00
0E00
0E00
0E00
0E00
0E00
0E00
0E00
0E00
0E00
0E00
0E00
0E00
0E00
0E00
0E00
0E00
CC00
8800
7000
ENDCHAR
STARTCHAR charBB
ENCODING 187
SWIDTH 615 0
DWIDTH 16 0
BBX 13 18 2 0
VVECTOR 9 21
SWIDTH1 0 -1000
DWIDTH1 0 -26
BITMAP 
0E00
3180
78C0
38E0
00E0
03E0
1CE0
70E0
E0E0
E0E0
E0E0
7368
1C30
0000
0000
0000
0000
FFF8
ENDCHAR
STARTCHAR charBC
ENCODING 188
SWIDTH 577 0
DWIDTH 15 0
BBX 11 18 2 0
VVECTOR 8 21
SWIDTH1 0 -1000
DWIDTH1 0 -26
BITMAP 
0E00
3180
60C0
E0E0
E0E0
E0E0
E0E0
E0E0
E0E0
E0E0
60C0
3180
0E00
0000
0000
0000
0000
FFE0
ENDCHAR
STARTCHAR charBD
ENCODING 189
SWIDTH 731 0
DWIDTH 19 0
BBX 15 18 2 0
VVECTOR 10 21
SWIDTH1 0 -1000
DWIDTH1 0 -26
BITMAP 
07C0
1830
3018
600C
E00E
E00E
E00E
E00E
600C
701C
3018
3018
1830
0820
0820
8442
FC7E
7C7C
ENDCHAR
STARTCHAR charBE
ENCODING 190
SWIDTH 846 0
DWIDTH 22 0
BBX 18 13 2 0
VVECTOR 11 21
SWIDTH1 0 -1000
DWIDTH1 0 -26
BITMAP 
0E0C00
313300
78E180
38E1C0
00E1C0
03E1C0
1CFFC0
70E000
E0E000
E0E000
E16080
723100
1C0E00
ENDCHAR
STARTCHAR charBF
ENCODING 191
SWIDTH 577 0
DWIDTH 15 0
BBX 11 13 2 0
VVECTOR 8 21
SWIDTH1 0 -1000
DWIDTH1 0 -26
BITMAP 
0E00
31A0
60C0
E0E0
E1E0
E2E0
E4E0
E8E0
F0E0
E0E0
60C0
B180
0E00
ENDCHAR
STARTCHAR charC0
ENCODING 192
SWIDTH 538 0
DWIDTH 14 0
BBX 12 18 1 0
VVECTOR 7 21
SWIDTH1 0 -1000
DWIDTH1 0 -26
BITMAP 
0E00
0E00
0000
0000
0400
0400
0400
0800
1800
3000
6000
E000
E000
E0E0
E0F0
6020
30C0
0F00
ENDCHAR
STARTCHAR charC1
ENCODING 193
SWIDTH 346 0
DWIDTH 9 0
BBX 3 18 3 0
VVECTOR 5 21
SWIDTH1 0 -1000
DWIDTH1 0 -26
BITMAP 
E0
E0
00
00
40
E0
E0
E0
E0
E0
E0
E0
E0
E0
E0
E0
E0
E0
ENDCHAR
STARTCHAR charC2
ENCODING 194
SWIDTH 808 0
DWIDTH 21 0
BBX 17 6 2 4
VVECTOR 11 21
SWIDTH1 0 -1000
DWIDTH1 0 -26
BITMAP 
FFFF80
000180
000180
000180
000180
000180
ENDCHAR
STARTCHAR charC3
ENCODING 195
SWIDTH 769 0
DWIDTH 20 0
BBX 18 24 1 -4
VVECTOR 10 21
SWIDTH1 0 -1000
DWIDTH1 0 -26
BITMAP 
0007C0
000600
000600
000C00
000C00
000C00
001800
001800
001800
003000
003000
003000
006000
006000
00C000
00C000
10C000
318000
518000
930000
0B0000
0B0000
060000
060000
ENDCHAR
STARTCHAR charC4
ENCODING 196
SWIDTH 577 0
DWIDTH 15 0
BBX 11 21 2 -3
VVECTOR 8 21
SWIDTH1 0 -1000
DWIDTH1 0 -26
BITMAP 
01C0
0220
0660
0E00
0E00
0E00
0E00
0E00
7FC0
0E00
0E00
0E00
0E00
0E00
0E00
0E00
0E00
0E00
CC00
8800
7000
ENDCHAR
STARTCHAR charC5
ENCODING 197
SWIDTH 808 0
DWIDTH 21 0
BBX 17 7 2 6
VVECTOR 11 21
SWIDTH1 0 -1000
DWIDTH1 0 -26
BITMAP 
1E0080
61C300
803C00
000000
1E0080
61C300
803C00
ENDCHAR
STARTCHAR charC6
ENCODING 198
SWIDTH 769 0
DWIDTH 20 0
BBX 17 18 1 0
VVECTOR 10 21
SWIDTH1 0 -1000
DWIDTH1 0 -26
BITMAP 
008000
008000
01C000
01C000
02E000
026000
047000
043000
083800
081800
101C00
100C00
200E00
200600
400700
400300
800380
FFFF80
ENDCHAR
STARTCHAR charC7
ENCODING 199
SWIDTH 538 0
DWIDTH 14 0
BBX 12 9 1 3
VVECTOR 7 21
SWIDTH1 0 -1000
DWIDTH1 0 -26
BITMAP 
0C30
1860
30C0
6180
C300
6180
30C0
1860
0C30
ENDCHAR
STARTCHAR charC8
ENCODING 200
SWIDTH 538 0
DWIDTH 14 0
BBX 12 9 1 3
VVECTOR 7 21
SWIDTH1 0 -1000
DWIDTH1 0 -26
BITMAP 
C300
6180
30C0
1860
0C30
1860
30C0
6180
C300
ENDCHAR
STARTCHAR charC9
ENCODING 201
SWIDTH 769 0
DWIDTH 20 0
BBX 17 2 2 0
VVECTOR 11 21
SWIDTH1 0 -1000
DWIDTH1 0 -26
BITMAP 
E1C380
E1C380
ENDCHAR
STARTCHAR charCA
ENCODING 202
SWIDTH 423 0
DWIDTH 11 0
BBX 0 0 15 -5
VVECTOR 15 -5
SWIDTH1 0 0
DWIDTH1 0 0
BITMAP 
ENDCHAR
STARTCHAR charCB
ENCODING 203
SWIDTH 731 0
DWIDTH 19 0
BBX 19 21 0 0
VVECTOR 10 21
SWIDTH1 0 -1000
DWIDTH1 0 -26
BITMAP 
070000
018000
004000
000000
00C000
00C000
01E000
016000
027000
023000
023800
043800
041800
041C00
0FFC00
080C00
080E00
100E00
100600
380F00
FE3FE0
ENDCHAR
STARTCHAR charCC
ENCODING 204
SWIDTH 731 0
DWIDTH 19 0
BBX 19 21 0 0
VVECTOR 10 21
SWIDTH1 0 -1000
DWIDTH1 0 -26
BITMAP 
038400
04C800
087000
000000
00C000
00C000
01E000
016000
027000
023000
023800
043800
041800
041C00
0FFC00
080C00
080E00
100E00
100600
380F00
FE3FE0
ENDCHAR
STARTCHAR charCD
ENCODING 205
SWIDTH 769 0
DWIDTH 20 0
BBX 16 21 2 0
VVECTOR 10 21
SWIDTH1 0 -1000
DWIDTH1 0 -26
BITMAP 
0708
0990
10E0
0000
03C0
0C30
381C
700E
700E
E007
E007
E007
E007
E007
E007
E007
700E
700E
381C
0C30
03C0
ENDCHAR
STARTCHAR charCE
ENCODING 206
SWIDTH 1038 0
DWIDTH 27 0
BBX 23 18 2 0
VVECTOR 14 21
SWIDTH1 0 -1000
DWIDTH1 0 -26
BITMAP 
03FFFE
0C3E0E
381E06
700E02
700E02
E00E10
E00E10
E00E30
E00FF0
E00E30
E00E10
E00E10
E00E00
700E02
700E02
381E06
0C3E0E
03FFFE
ENDCHAR
STARTCHAR charCF
ENCODING 207
SWIDTH 885 0
DWIDTH 23 0
BBX 19 13 2 0
VVECTOR 12 21
SWIDTH1 0 -1000
DWIDTH1 0 -26
BITMAP 
0E0E00
31B180
60E0C0
E0E0E0
E0E0E0
E0E0E0
E0FFE0
E0E000
E0E000
E0E000
60E040
31B080
0E0F00
ENDCHAR
STARTCHAR charD0
ENCODING 208
SWIDTH 346 0
DWIDTH 9 0
BBX 7 1 1 9
VVECTOR 5 21
SWIDTH1 0 -1000
DWIDTH1 0 -26
BITMAP 
FE
ENDCHAR
STARTCHAR charD1
ENCODING 209
SWIDTH 769 0
DWIDTH 20 0
BBX 20 1 0 9
VVECTOR 10 21
SWIDTH1 0 -1000
DWIDTH1 0 -26
BITMAP 
FFFFF0
ENDCHAR
STARTCHAR charD2
ENCODING 210
SWIDTH 423 0
DWIDTH 11 0
BBX 8 5 1 13
VVECTOR 5 21
SWIDTH1 0 -1000
DWIDTH1 0 -26
BITMAP 
21
42
C4
E7
63
ENDCHAR
STARTCHAR charD3
ENCODING 211
SWIDTH 423 0
DWIDTH 11 0
BBX 8 5 2 13
VVECTOR 6 21
SWIDTH1 0 -1000
DWIDTH1 0 -26
BITMAP 
C6
E7
63
42
84
ENDCHAR
STARTCHAR charD4
ENCODING 212
SWIDTH 231 0
DWIDTH 6 0
BBX 3 5 1 13
VVECTOR 3 21
SWIDTH1 0 -1000
DWIDTH1 0 -26
BITMAP 
20
40
C0
E0
60
ENDCHAR
STARTCHAR charD5
ENCODING 213
SWIDTH 231 0
DWIDTH 6 0
BBX 3 5 2 13
VVECTOR 4 21
SWIDTH1 0 -1000
DWIDTH1 0 -26
BITMAP 
C0
E0
60
40
80
ENDCHAR
STARTCHAR charD6
ENCODING 214
SWIDTH 808 0
DWIDTH 21 0
BBX 17 13 2 3
VVECTOR 11 21
SWIDTH1 0 -1000
DWIDTH1 0 -26
BITMAP 
01C000
01C000
01C000
000000
000000
000000
FFFF80
000000
000000
000000
01C000
01C000
01C000
ENDCHAR
STARTCHAR charD7
ENCODING 215
SWIDTH 769 0
DWIDTH 20 0
BBX 15 15 2 2
VVECTOR 10 21
SWIDTH1 0 -1000
DWIDTH1 0 -26
BITMAP 
0100
0380
06C0
0C60
1830
3018
600C
C006
600C
3018
1830
0C60
06C0
0380
0100
ENDCHAR
STARTCHAR charD8
ENCODING 216
SWIDTH 654 0
DWIDTH 17 0
BBX 16 22 0 -5
VVECTOR 8 21
SWIDTH1 0 -1000
DWIDTH1 0 -26
BITMAP 
0630
0630
0000
0000
FE1F
3804
3804
3808
1C08
1C10
0E10
0E20
0E20
0740
0740
0380
0380
0100
7100
F200
6200
1C00
ENDCHAR
STARTCHAR missing
ENCODING -1
SWIDTH 577 0
DWIDTH 15 0
BBX 15 22 0 -2
VVECTOR 8 21
SWIDTH1 0 -1000
DWIDTH1 0 -26
BITMAP 
FFFE
FFFE
F87E
E01E
CF8E
E7C6
FFC6
FFC6
FF8E
FF1E
FE3E
FC7E
FCFE
FCFE
FCFE
FFFE
FFFE
F8FE
F07E
F8FE
FFFE
FFFE
ENDCHAR
ENDFONT
